<svg class="{{ with .class }}{{ . }} {{ end }}icon icon-simplex" width="24" height="24" viewBox="0 0 34 34" xmlns="http://www.w3.org/2000/svg">
  <g clip-path="url(#clip0)">
    <path d="M3.03 8.594L8.622 14.186l5.748-5.748 2.797 2.796-5.749 5.748 5.593 5.592-2.874 2.874-5.593-5.592-5.748 5.748L0 22.807l5.748-5.748L0.156 11.468 3.03 8.594Z" fill="#ffffff"/>
    <path d="M14.092 25.5l2.851-2.851-0.001-0.001 5.704-5.703-5.595-5.594 0.001-0.001-2.798-2.797-5.594-5.594L11.511 0.108l5.594 5.595 5.704-5.703 2.797 2.797-5.704 5.703 5.595 5.594 5.704-5.703 2.797 2.797-5.704 5.703 5.596 5.595-2.852 2.851-5.595-5.595-5.704 5.704 5.596 5.595-2.852 2.851-5.595-5.595L11.186 34 8.389 31.203 14.092 25.5Z" fill="#ffffff"/>
  </g>
  <defs>
    <clipPath id="clip0">
      <rect width="34" height="34" fill="white"/>
    </clipPath>
  </defs>
</svg>

